# xmcd
#
# Track frame offsets: 
#        150
#        16871
#        31900
#        43677
#        57051
#        71880
#        87756
#        100177
#        115596
#        126115
#        143489
#        158215
#        174509
#        185898
#        202497
#        219854
#        234265
#        245184
#        255293
#        272595
#
# Disc length: 3793 seconds
#
# Revision: 0
# Processed by: cddbd v1.5.2PL0 Copyright (c) Steve Scherf et al.
# Submitted via: ExactAudioCopy v0.99pb4
#
DISCID=140ecf14
DTITLE=Manfred Mann - Manfred Mann's R&B Album
DYEAR=1900
DGENRE=R&B
TTITLE0=We're Gonna Groove
TTITLE1=Can't Believe
TTITLE2=What You Gonna Do
TTITLE3=Don't Ask Me What I Say
TTITLE4=Hoochie Coochie Man
TTITLE5=Smokestack Lightning
TTITLE6=I'm Your Kingpin
TTITLE7=Bring It To Jerome
TTITLE8=Without You
TTITLE9=Let's Go Get Stoned
TTITLE10=Watermelon Mann
TTITLE11=I Put A Spell On You
TTITLE12=Driva Man
TTITLE13=Call It Stormy Monday
TTITLE14=What Did I Do Wrong
TTITLE15=I've Got My Mojo Working
TTITLE16=Down The Road A Piece
TTITLE17=Watch Your Step
TTITLE18=LSD
TTITLE19=One In The Middle
EXTD=
EXTT0=
EXTT1=
EXTT2=
EXTT3=
EXTT4=
EXTT5=
EXTT6=
EXTT7=
EXTT8=
EXTT9=
EXTT10=
EXTT11=
EXTT12=
EXTT13=
EXTT14=
EXTT15=
EXTT16=
EXTT17=
EXTT18=
EXTT19=
PLAYORDER=
